<svg xmlns="http://www.w3.org/2000/svg" width="71" height="54" viewBox="0 0 71 54" fill="none"><path d="M70.7164 42.6378C70.7164 43.685 70.0809 44.3832 69.1283 44.3832C68.1756 44.3832 67.5402 43.685 67.5402 42.6378L69.1283 28.6746L67.5402 14.7113C67.5402 13.664 68.1756 12.9659 69.1283 12.9659C70.0809 12.9659 70.7164 13.664 70.7164 14.7113L69.1283 28.6746L70.7164 42.6378ZM51.6629 5.98425H54.8382V19.9475H51.6629V5.98425ZM32.6095 5.98425H35.7848V19.9475H32.6095V5.98425ZM53.2501 47.874C53.2501 50.8412 51.1866 53.1102 48.4867 53.1102C45.7878 53.1102 43.7234 50.8412 43.7234 47.874C43.7234 44.9068 45.7878 42.6378 48.4867 42.6378C51.1866 42.6378 53.2501 44.9068 53.2501 47.874Z" fill="#455A64"/>
<path d="M50.0748 47.8739C50.0748 48.9211 49.4394 49.6193 48.4867 49.6193C47.5341 49.6193 46.8996 48.9211 46.8996 47.8739C46.8996 46.8266 47.5341 46.1285 48.4867 46.1285C49.4394 46.1285 50.0748 46.8266 50.0748 47.8739Z" fill="#B0BEC5"/>
<path d="M55.6318 16.4567H51.9802C51.8211 16.4567 51.6629 16.4567 51.5038 16.4567C51.5038 16.6312 51.6629 16.8057 51.6629 16.9803C51.8211 19.4238 48.3286 21.5183 43.8824 21.6929C39.5954 21.8675 36.102 20.122 35.7847 17.853C21.8119 19.5984 4.0293 23.0892 4.0293 27.8018C4.0293 34.958 45.1523 39.147 51.6629 39.147H55.6318C57.6962 39.147 59.6015 39.147 61.1896 38.9724V16.6312C59.6015 16.4567 57.6962 16.4567 55.6318 16.4567Z" fill="#7986CB" fill-opacity="0.5"/>
<path d="M63.5713 27.8018C63.5713 29.1981 64.6821 30.4199 65.953 30.4199H68.3347C69.6046 30.4199 70.7164 29.1981 70.7164 27.8018C70.7164 26.4054 69.6046 25.1837 68.3347 25.1837H65.953C64.6821 25.1837 63.5713 26.4054 63.5713 27.8018Z" fill="#607D8B"/>
<path d="M41.3416 38.449L44.5179 44.907C45.3114 43.6852 46.5814 42.8125 48.0104 42.8125L47.6931 39.1472C45.9469 38.7981 43.8824 38.6236 41.3416 38.449Z" fill="#78909C"/>

<path d="M67.5401 32.1654V23.4384C67.5401 18.3766 65.0003 16.9803 61.1896 16.6313V38.9725C65.0003 38.6234 67.5401 37.227 67.5401 32.1654ZM57.2198 0.748047C43.7233 0.748047 27.8461 5.98427 27.8461 5.98427C26.8934 5.98427 26.258 6.68246 26.258 7.72971C26.258 8.60238 26.8934 9.30058 27.5279 9.47505C27.687 9.47505 27.687 9.47505 27.8461 9.47505L57.2198 7.72971C58.4897 7.72971 59.6015 6.50789 59.6015 5.1116V3.36616C59.6015 0.748047 57.2198 0.748047 57.2198 0.748047ZM14.6669 21.6929C13.3969 18.3766 10.3798 11.2205 7.36366 11.2205C3.39388 11.2205 0.853119 11.2205 0.853119 11.2205L4.02931 27.8018C4.02931 25.3583 8.47449 23.4384 14.6669 21.6929ZM51.5038 16.4567C51.5038 16.6313 51.6629 16.8058 51.6629 16.9803C51.821 19.4239 48.3285 21.5184 43.8824 21.6929C43.7233 21.6929 43.4061 21.6929 43.247 21.6929C43.0889 21.6929 42.9298 21.6929 42.7707 21.6929C42.6125 21.6929 42.2943 21.6929 42.1362 21.6929C41.818 21.6929 41.6599 21.6929 41.3417 21.5184C41.1835 21.5184 40.8653 21.5184 40.7072 21.3439C40.389 21.3439 40.2308 21.1693 39.9127 21.1693C39.7545 21.1693 39.5954 20.9947 39.4363 20.9947C39.1191 20.8203 38.96 20.8203 38.6427 20.6457C38.4836 20.6457 38.4836 20.4711 38.3255 20.4711C38.0073 20.2966 37.8492 20.1221 37.531 19.9475C37.531 19.9475 37.3728 19.9475 37.3728 19.773C37.0546 19.5984 36.8965 19.4239 36.7374 19.2494C36.5783 19.0748 36.4202 18.7258 36.2611 18.5512C35.9438 18.3766 35.7847 18.2022 35.7847 17.853C34.673 18.0276 33.7203 18.2022 32.6095 18.2022C33.0858 22.2166 37.2137 25.1837 43.0888 25.1837C43.4061 25.1837 43.5652 25.1837 43.8824 25.1837C46.4232 25.0092 48.963 24.311 50.8684 23.2638C53.4092 21.6929 54.8382 19.4239 54.6791 16.8058C54.6791 16.6313 54.6791 16.6313 54.6791 16.4567H51.821C51.821 16.4567 51.6629 16.4567 51.5038 16.4567Z" fill="#7986CB"/>
</svg>