<svg width="46" height="64" viewBox="0 0 46 64" fill="none" xmlns="http://www.w3.org/2000/svg">
<path d="M16.7223 15.458L15.4838 33.1779C15.4838 33.1779 9.28184 41.0838 5.44257 44.9003C4.07072 46.2633 3.07996 48.0354 3.07996 50.08V54.987H20.4472H25.4011H42.7588V50.2162C42.7588 48.1717 41.768 46.3997 40.4057 45.0366C36.5664 40.9474 30.3645 33.1779 30.3645 33.1779L29.126 15.458H16.7223Z" fill="#9FA8DA"/>
<path d="M33.8323 54.987H31.3553C30.4884 49.2621 29.126 46.8086 29.126 46.8086C29.126 46.8086 29.126 19.1383 29.126 15.458L30.3645 33.1779C30.3645 33.1779 30.86 33.7231 31.6031 34.6772V45.9907C32.3461 47.3538 33.3369 50.08 33.8323 54.987ZM12.0065 54.987H14.4929C15.236 49.1259 16.7223 46.8086 16.7223 46.8086C16.7223 46.8086 16.7223 19.1383 16.7223 15.458L15.4838 33.1779C15.4838 33.1779 14.9883 33.7231 14.2452 34.6772V45.9907C13.5021 47.3538 12.5114 50.08 12.0065 54.987Z" fill="#7986CB"/>
<path d="M16.7223 15.4582C16.7223 18.8659 16.7223 46.8088 16.7223 46.8088C16.7223 46.8088 14.2452 50.898 14.2452 60.4395H31.603C31.603 51.1707 29.126 46.8088 29.126 46.8088C29.126 46.8088 29.126 19.1385 29.126 15.4582C29.126 11.778 25.6488 0.464478 22.9242 0.464478C20.19 0.464478 16.7223 12.0506 16.7223 15.4582Z" fill="#C5CAE9"/>
<path d="M3.07995 50.2162V54.987H0.603027V50.2162C0.603027 48.1717 1.71763 46.536 2.9561 45.0366C7.42414 39.5843 14.2453 31.8148 14.2453 31.8148C15.8553 24.318 16.7223 15.458 16.7223 15.458C16.7223 17.0937 16.7223 24.7269 16.7223 32.0874C16.7223 32.2238 16.7223 32.3601 16.7223 32.3601L16.4746 33.1779L15.9792 33.7231C15.8553 33.8594 9.15808 41.629 4.69957 46.8086C3.57541 48.1717 3.07995 49.1259 3.07995 50.2162ZM29.126 32.3601L29.3737 33.1779L29.8691 33.7231C29.993 33.8594 36.6903 41.629 41.1489 46.8086C42.3873 48.1717 42.8827 49.2621 42.8827 50.2162V54.987H45.3691V50.2162C45.3691 48.1717 44.2545 46.536 43.0065 45.0366C38.4242 39.5843 31.6031 31.8148 31.6031 31.8148C29.993 24.318 29.126 15.458 29.126 15.458C29.126 17.23 29.126 24.8632 29.126 32.0874C29.126 32.2238 29.126 32.3601 29.126 32.3601Z" fill="#455A64"/>
<path d="M20.4472 63.1658H15.4838V60.4396H20.4472V63.1658ZM30.3645 60.4396H25.4011V63.1658H30.3645V60.4396Z" fill="#546E7A"/>
<path d="M22.9243 0.464722C24.0389 0.464722 25.1534 2.23676 26.2681 4.554H19.6947C20.695 2.23676 21.8096 0.464722 22.9243 0.464722ZM22.9243 8.64318C20.1901 8.64318 18.4561 10.2789 18.3323 10.4151L19.9424 12.4598C19.9424 12.4598 21.0665 11.3693 22.8004 11.3693C24.5343 11.3693 25.6489 12.3234 25.6489 12.3234L27.2589 10.2789C27.3828 10.2789 25.6489 8.64318 22.9243 8.64318Z" fill="#455A64"/>
<path d="M16.7223 46.8088H21.6857V60.4396H24.1626V46.8088H29.126V44.0828H16.7223V46.8088Z" fill="#9FA8DA"/>
</svg>
