<svg width="73" height="38" viewBox="0 0 73 38" fill="none" xmlns="http://www.w3.org/2000/svg">
<path fill-rule="evenodd" clip-rule="evenodd" d="M39.9404 27.9146L39.2983 28.3362L40.108 29.8196L40.7482 29.3991L39.9404 27.9146Z" fill="#1D2735"/>
<path fill-rule="evenodd" clip-rule="evenodd" d="M40.9674 29.2347L39.8727 29.9549L40.0108 30.2075L41.1055 29.4884L40.9674 29.2347Z" fill="#1D2735"/>
<path fill-rule="evenodd" clip-rule="evenodd" d="M40.6873 29.4252L40.1671 29.784L41.6056 32.4787L42.1248 32.1205L40.6873 29.4252Z" fill="#1D2735"/>
<path fill-rule="evenodd" clip-rule="evenodd" d="M43.3128 25.3478L36.545 29.7999C36.2421 29.9986 36.1439 30.4313 36.3249 30.7645C36.5031 31.0965 36.8994 31.2057 37.2014 31.0074L43.9692 26.5554C44.2721 26.3557 44.3702 25.9231 44.1892 25.5897C44.0082 25.259 43.6138 25.1493 43.3128 25.3478Z" fill="#8EC2EB"/>
<path fill-rule="evenodd" clip-rule="evenodd" d="M62.5959 13.0121L61.9547 13.4341L62.7626 14.9176L63.4028 14.4971L62.5959 13.0121Z" fill="#1D2735"/>
<path fill-rule="evenodd" clip-rule="evenodd" d="M63.6219 14.3323L62.5273 15.0524L62.6654 15.306L63.76 14.5859L63.6219 14.3323Z" fill="#1D2735"/>
<path fill-rule="evenodd" clip-rule="evenodd" d="M63.4228 14.6763L62.8959 15.0231L63.2798 15.7267L63.8057 15.3814L63.4228 14.6763Z" fill="#1D2735"/>
<path fill-rule="evenodd" clip-rule="evenodd" d="M65.6453 17.2851C65.4538 18.1283 64.6745 18.6415 63.9067 18.4294C63.1388 18.2173 62.6739 17.3617 62.8664 16.5198C63.0607 15.675 63.8371 15.1633 64.604 15.3741C65.3719 15.5861 65.8387 16.4424 65.6453 17.2851Z" fill="#313E4F"/>
<path fill-rule="evenodd" clip-rule="evenodd" d="M64.9013 17.0804C64.8099 17.4719 64.4507 17.7086 64.0934 17.6121C63.7381 17.5128 63.5218 17.1144 63.6123 16.7236L64.9013 17.0804Z" fill="#313E4F"/>
<path fill-rule="evenodd" clip-rule="evenodd" d="M64.3602 16.4519C64.5879 16.5145 64.7242 16.7683 64.668 17.0174V17.0173C64.6108 17.2649 64.3802 17.4166 64.1534 17.3533C63.9277 17.2899 63.7895 17.039 63.8467 16.7891V16.7892C63.9048 16.5409 64.1354 16.3899 64.3602 16.4519Z" fill="#E5F3FB"/>
<path fill-rule="evenodd" clip-rule="evenodd" d="M64.0182 16.8366C63.9848 16.9807 64.0658 17.1279 64.1973 17.1656C64.3288 17.2021 64.4631 17.1129 64.4965 16.9687C64.5289 16.8221 64.4488 16.6761 64.3173 16.6397C64.1849 16.604 64.0525 16.6917 64.0182 16.8366Z" fill="#313E4F"/>
<path fill-rule="evenodd" clip-rule="evenodd" d="M65.2414 10.7983L58.4746 15.2513C58.1716 15.4495 58.0726 15.8828 58.2546 16.2155C58.4346 16.5468 58.8281 16.6556 59.1301 16.4579L65.8997 12.0063C66.2007 11.8071 66.2989 11.3736 66.1189 11.0413C65.9388 10.7099 65.5444 10.6002 65.2414 10.7983Z" fill="#8EC2EB"/>
<path fill-rule="evenodd" clip-rule="evenodd" d="M12.2623 32.8272L0.812195 19.712L3.45681 18.1178L17.1076 23.3637C18.3747 23.8771 19.737 23.9113 21.1756 23.5477L27.9233 21.6926L17.6573 30.5818L12.2623 32.8272Z" fill="#8EC2EB"/>
<path fill-rule="evenodd" clip-rule="evenodd" d="M12.2623 32.8275L0.812195 19.7125L2.56514 18.6545L15.933 26.1552C18.2442 27.1198 21.0907 26.531 23.1981 25.7841L13.4732 33.6593L12.2623 32.8275Z" fill="#6DA4D4"/>
<path fill-rule="evenodd" clip-rule="evenodd" d="M67.7583 10.0426L33.1202 33.1449C17.1811 39.8935 13.6781 37.5142 12.0376 32.8698C26.803 21.8635 41.1779 12.2656 56.9436 2.91863C58.8204 1.80761 63.5885 -0.387519 66.758 0.219254C67.2801 0.319056 67.7479 0.501066 68.1642 0.77136C71.5224 0.625269 73.5639 1.03925 72.1406 4.23198C71.1413 6.47915 69.758 8.49981 67.7583 10.0426Z" fill="#B0D8F2"/>
<path fill-rule="evenodd" clip-rule="evenodd" d="M68.1642 0.771352L66.4532 3.13174C65.4024 3.15216 64.5736 2.9357 64.0925 2.35165L66.1065 0.133789C66.7609 0.141539 67.6726 0.406282 68.1642 0.771352Z" fill="#405776"/>
<path fill-rule="evenodd" clip-rule="evenodd" d="M52.3241 16.8079L44.5132 22.3826C43.9196 22.8059 43.7082 23.6529 44.0711 24.319L45.3677 26.702C45.7307 27.3674 46.508 27.5552 47.1292 27.1878L55.3298 22.3321C55.9529 21.9646 56.1348 21.0636 55.7728 20.3972L54.0837 17.2948C53.7208 16.6289 52.9148 16.3858 52.3241 16.8079Z" fill="#6DA4D4"/>
<path fill-rule="evenodd" clip-rule="evenodd" d="M44.96 22.0619L44.5132 22.3828L44.4694 22.4158L47.0807 27.2139L47.1292 27.187L47.5989 26.9091L44.96 22.0619Z" fill="#405776"/>
<path fill-rule="evenodd" clip-rule="evenodd" d="M51.9831 17.0507L51.4896 17.4022L54.4552 22.8501L54.9734 22.5452L51.9831 17.0507Z" fill="#405776"/>
<path fill-rule="evenodd" clip-rule="evenodd" d="M31.3834 24.7653L30.9643 25.0275C30.6956 25.1944 30.6013 25.5725 30.7537 25.8691L31.3091 26.9421C31.4616 27.2372 31.8064 27.3418 32.0741 27.1731L32.4924 26.9114C32.762 26.743 32.8572 26.3654 32.7048 26.0702L32.1494 24.9972C31.9969 24.7021 31.6512 24.598 31.3834 24.7653Z" fill="#405776"/>
<path fill-rule="evenodd" clip-rule="evenodd" d="M26.923 27.5963L26.5038 27.8585C26.2352 28.0255 26.1398 28.4041 26.2923 28.7001L26.8468 29.7736C27.0002 30.0687 27.3441 30.1735 27.6128 30.0041L28.032 29.7424C28.2997 29.5747 28.395 29.1975 28.2435 28.9018L27.688 27.8288C27.5347 27.5337 27.1907 27.4291 26.923 27.5963Z" fill="#405776"/>
<path fill-rule="evenodd" clip-rule="evenodd" d="M22.4607 30.4285L22.0425 30.6902C21.7729 30.8571 21.6786 31.2351 21.832 31.5312L22.3873 32.6042C22.5398 32.8993 22.8846 33.0039 23.1514 32.8358L23.5706 32.5735C23.8383 32.4063 23.9345 32.0285 23.7811 31.7334L23.2267 30.6599C23.0743 30.3648 22.7294 30.2602 22.4607 30.4285Z" fill="#405776"/>
<path fill-rule="evenodd" clip-rule="evenodd" d="M39.1249 32.2837C39.3402 31.5414 40.0242 31.09 40.7206 31.2309V31.2341L39.1249 32.2837Z" fill="#DE3322"/>
<path fill-rule="evenodd" clip-rule="evenodd" d="M41.8361 33.1319C41.6465 33.9626 40.8796 34.4664 40.1251 34.257C39.3696 34.0495 38.9105 33.2068 39.1 32.3761C39.2896 31.5474 40.0565 31.0423 40.812 31.2511C41.5675 31.4598 42.0257 32.302 41.8361 33.1319Z" fill="#313E4F"/>
<path fill-rule="evenodd" clip-rule="evenodd" d="M40.57 32.3123C40.7929 32.3747 40.9272 32.6224 40.872 32.8683H40.8711C40.8149 33.1128 40.5891 33.2606 40.3662 33.2003C40.1442 33.138 40.009 32.8902 40.0652 32.6442V32.6443C40.1214 32.4005 40.3471 32.2519 40.57 32.3123Z" fill="#E5F3FB"/>
<path fill-rule="evenodd" clip-rule="evenodd" d="M40.5271 32.4963C40.6577 32.5315 40.7358 32.6772 40.7034 32.8203L40.2337 32.6894C40.2652 32.5463 40.3985 32.4604 40.5271 32.4963ZM40.4109 33.0143C40.2814 32.9784 40.2023 32.8334 40.2347 32.6903L40.7044 32.8212C40.6701 32.9638 40.5395 33.0502 40.4109 33.0143Z" fill="#313E4F"/>
<path fill-rule="evenodd" clip-rule="evenodd" d="M41.5447 30.6905C41.76 29.9496 42.4449 29.4982 43.1394 29.6378V29.643L41.5447 30.6905Z" fill="#DE3322"/>
<path fill-rule="evenodd" clip-rule="evenodd" d="M44.255 31.5402C44.0645 32.3696 43.2995 32.8739 42.545 32.6645C41.7895 32.4558 41.3302 31.6143 41.5198 30.7836C41.7094 29.9536 42.4763 29.4498 43.2318 29.6585C43.9873 29.8659 44.4455 30.7094 44.255 31.5402Z" fill="#313E4F"/>
<path fill-rule="evenodd" clip-rule="evenodd" d="M43.5214 31.3383C43.4347 31.7246 43.0775 31.9578 42.7279 31.8601C42.3792 31.7637 42.1667 31.3735 42.2534 30.9883L43.5214 31.3383Z" fill="#313E4F"/>
<path fill-rule="evenodd" clip-rule="evenodd" d="M42.9908 30.7198C43.2128 30.7809 43.3462 31.0306 43.2909 31.2746L42.484 31.053C42.5393 30.8077 42.767 30.6581 42.9908 30.7198ZM42.787 31.6074C42.565 31.5462 42.4297 31.2973 42.4849 31.0533L43.2919 31.275C43.2357 31.5209 43.0108 31.6689 42.787 31.6074Z" fill="#E5F3FB"/>
<path fill-rule="evenodd" clip-rule="evenodd" d="M42.948 30.9073C43.0775 30.9432 43.1557 31.0869 43.1233 31.23L42.6545 31.1004C42.686 30.9572 42.8174 30.8708 42.948 30.9073ZM42.8308 31.4234C42.7003 31.3884 42.6212 31.2433 42.6545 31.1008L43.1242 31.2304C43.0909 31.3743 42.9604 31.4606 42.8308 31.4234Z" fill="#313E4F"/>
<path fill-rule="evenodd" clip-rule="evenodd" d="M60.7562 6.12996L60.3371 6.39219C60.0684 6.55996 59.9731 6.93864 60.1265 7.23375L60.6819 8.3077C60.8334 8.6024 61.1773 8.70607 61.4469 8.53872L61.8652 8.27702C62.1348 8.10862 62.2291 7.73057 62.0766 7.43545L61.5212 6.36098C61.3697 6.06681 61.0249 5.96208 60.7562 6.12996Z" fill="#405776"/>
<path fill-rule="evenodd" clip-rule="evenodd" d="M56.2949 8.96158L55.8766 9.22328C55.608 9.39115 55.5127 9.76973 55.6652 10.0648L56.2206 11.1393C56.3739 11.433 56.7179 11.5366 56.9865 11.3698L57.4047 11.1081C57.6734 10.9403 57.7677 10.5622 57.6153 10.2671L57.0598 9.1926C56.9074 8.89843 56.5635 8.79381 56.2949 8.96158Z" fill="#405776"/>
<path fill-rule="evenodd" clip-rule="evenodd" d="M51.8335 11.7927L51.4144 12.0549C51.1457 12.2228 51.0514 12.6008 51.2047 12.8959L51.7592 13.9704C51.9126 14.2641 52.2565 14.3677 52.5242 14.202L52.9434 13.9397C53.2121 13.7713 53.3064 13.3933 53.154 13.0982L52.5985 12.0237C52.4471 11.7295 52.1022 11.6248 51.8335 11.7927Z" fill="#405776"/>
<path fill-rule="evenodd" clip-rule="evenodd" d="M38.4494 20.2873L38.0312 20.5489C37.7625 20.7168 37.6673 21.0955 37.8216 21.39L38.377 22.4639C38.5295 22.7581 38.8733 22.8619 39.141 22.6955L39.5593 22.4339C39.8279 22.266 39.9232 21.8873 39.7708 21.5922L39.2153 20.5177C39.0639 20.2236 38.719 20.1189 38.4494 20.2873Z" fill="#405776"/>
<path fill-rule="evenodd" clip-rule="evenodd" d="M36.2193 21.7027L35.801 21.9644C35.5324 22.1322 35.4371 22.5108 35.5905 22.8059L36.145 23.8804C36.2974 24.1746 36.6413 24.2784 36.9099 24.1114L37.3291 23.8497C37.5977 23.6814 37.693 23.3028 37.5405 23.0076L36.9851 21.9332C36.8337 21.639 36.4879 21.5349 36.2193 21.7027Z" fill="#405776"/>
<path fill-rule="evenodd" clip-rule="evenodd" d="M60.7714 12.4558L57.4723 13.31L43.6853 19.4316C42.2486 20.4454 33.5041 19.055 28.3225 15.7479L26.7392 16.7897L35.4542 23.6962C37.2814 25.1495 39.0553 25.663 40.7758 25.2324L50.6112 19.0709L60.7714 12.4558Z" fill="#8EC2EB"/>
</svg>
